<?xml version="1.0" encoding="utf-8"?>
<!-- Generator: Adobe Illustrator 21.0.0, SVG Export Plug-In . SVG Version: 6.00 Build 0)  -->
<svg version="1.1" id="Layer_1" xmlns="http://www.w3.org/2000/svg" xmlns:xlink="http://www.w3.org/1999/xlink" x="0px" y="0px"
	 viewBox="0 0 100 27.6" style="enable-background:new 0 0 100 27.6;" xml:space="preserve">
<style type="text/css">
	.st0{fill-rule:evenodd;clip-rule:evenodd;}
	.st1{fill-rule:evenodd;clip-rule:evenodd;fill:#FFFFFF;}
</style>
<g>
	<path class="st0" d="M33.4,17.1c0.1-3.3-1.1-6.6-4-6.6c-2.9,0-4.1,3.1-4.1,6.2c0,3.4,1.2,6.2,4.1,6.2c2.3,0,3.4-1.6,3.9-4.2h-1.1
		c-0.3,1.8-1.2,3-2.8,3c-2.1,0-2.9-2.5-3-4.6H33.4z M26.5,15.9c0.2-2.1,1.2-4.2,3-4.2c1.8,0,2.8,2,2.9,4.2H26.5z M34.9,22.6H36v-6.9
		c0-2.3,1.1-4,2.8-4c1.8,0,2.3,1.5,2.3,3.6v7.3h1.1v-7.6c0-2.8-0.8-4.5-3.3-4.5c-1.3,0-2.5,1-2.9,2.4h0v-2h-1.1V22.6z M44.2,22.6
		h1.1v-6.9c0-2.3,1.1-4,2.8-4c1.8,0,2.3,1.5,2.3,3.6v7.3h1.1v-7.6c0-2.8-0.8-4.5-3.3-4.5c-1.3,0-2.5,1-2.9,2.4h0v-2h-1.1V22.6z
		 M56.2,22.6l-0.4,1.3c-0.4,1.1-0.6,1.8-1.6,1.8c-0.2,0-0.5,0-0.7-0.1v1.2c0.2,0.1,0.4,0.1,0.8,0.1c1.4,0,1.7-0.6,2.4-2.6l3.9-13.6
		h-1.1l-2.8,10l-3-10h-1.2L56.2,22.6z M67.9,7.7h2.5c3.6,0,5.1,2,5.1,6.8s-1.6,6.8-5.1,6.8h-2.5V7.7z M66.7,22.6H71
		c3.7-0.1,5.7-2.8,5.7-8.1s-2-8-5.7-8.1h-4.3V22.6z M82.2,10.5c-2.8,0-4.2,2.9-4.2,6.2c0,3.4,1.5,6.2,4.2,6.2s4.2-2.9,4.2-6.2
		C86.5,13.4,85,10.5,82.2,10.5z M82.2,11.7c2.1,0,3.2,2.5,3.2,5c0,2.5-1,5-3.2,5c-2.1,0-3.2-2.5-3.2-5
		C79.1,14.3,80.1,11.7,82.2,11.7z M89.8,7.3h-1.1v3.5h-1.6v1.2h1.6v8.1c0,2,0.5,2.6,1.9,2.6c0.3,0,0.6,0,1,0v-1.2
		c-0.3,0-0.6,0.1-0.9,0.1C90,21.5,89.8,21,89.8,20v-7.9h1.8v-1.2h-1.8V7.3z M99.7,14.3c-0.1-2.6-1.5-3.8-3.3-3.8
		c-1.6,0-3.4,0.9-3.4,3.3c0,2,1.1,2.6,2.5,3.1l1.4,0.4c1,0.3,2,0.8,2,2.1c0,1.6-1.4,2.2-2.5,2.2c-1.5,0-2.6-1-2.6-2.9h-1.1
		c0.2,2.9,1.6,4.2,3.7,4.2c1.7,0,3.6-1,3.6-3.5c0-2.1-1.3-3-2.6-3.3L96,15.8c-0.7-0.3-1.9-0.7-1.9-2c0-1.5,1.1-2,2.1-2
		c1.3,0,2.3,0.8,2.4,2.6H99.7z"/>
	<rect class="st0" width="24.3" height="27.6"/>
	<path class="st1" d="M6.2,22.3h5.6c3.9,0,6.4-3,6.4-8.6c0-5.3-2.4-8.4-6.4-8.4H6.2V22.3z M9.5,9.1h1.6c2.3,0,3.6,1.5,3.6,4.6
		c0,3.4-1,4.7-3.6,4.8H9.5V9.1z"/>
</g>
</svg>
